<svg width="224" height="64" viewBox="0 0 224 64" fill="none" xmlns="http://www.w3.org/2000/svg">
<path fill-rule="evenodd" clip-rule="evenodd" d="M30.0259 9.48148C32.6441 9.48148 34.7666 7.35898 34.7666 4.74074C34.7666 2.1225 32.6441 0 30.0259 0C27.4077 0 25.2852 2.1225 25.2852 4.74074C25.2852 7.35898 27.4077 9.48148 30.0259 9.48148ZM23.2836 37.1173L26.5981 29.0759L27.7006 32.4861L29.4721 37.9659C30.1484 40.0577 33.061 40.1818 33.9128 38.1551L35.7172 33.8617L36.6779 35.7329C37.0839 36.5235 37.8979 37.0206 38.7866 37.0206H50.9854C51.6824 38.49 53.1796 39.5062 54.914 39.5062C57.3141 39.5062 59.2597 37.5606 59.2597 35.1605C59.2597 32.7604 57.3141 30.8148 54.914 30.8148C52.967 30.8148 51.319 32.0953 50.7663 33.8601H39.2691L37.7543 30.9099C36.8344 29.1183 34.2407 29.2176 33.4604 31.0742L31.8243 34.9673L30.7078 31.5139L28.9433 26.0557C28.2645 23.9562 25.3372 23.8415 24.4963 25.8816L20.5631 35.4239H19.6796V24.9904C19.6796 23.8719 20.3254 22.8845 21.0719 22.0515C21.9582 21.0625 23.0867 20.1533 24.4147 20.1533H34.8278C36.1673 20.1533 37.3024 21.0662 38.1987 22.0616C39.2396 23.2175 40.7478 23.9442 42.4257 23.9442C45.5663 23.9442 48.1122 21.3983 48.1122 18.2578C48.1122 15.1172 45.5663 12.5713 42.4257 12.5713C40.9754 12.5713 39.652 13.1142 38.6475 14.0079C37.8046 14.7578 36.8052 15.4146 35.677 15.4146H23.5846C22.4564 15.4146 21.457 14.7578 20.6141 14.0079C19.6096 13.1142 18.2862 12.5713 16.8359 12.5713C13.6953 12.5713 11.1494 15.1172 11.1494 18.2578C11.1494 19.7082 11.6924 21.0317 12.5863 22.0363C13.3363 22.8792 13.9932 23.8786 13.9932 25.0069V35.4239H8.39937C7.77006 33.6517 6.19239 32.3951 4.34568 32.3951C1.94563 32.3951 0 34.5176 0 37.1358C0 39.7541 1.94563 41.8766 4.34568 41.8766C6.28263 41.8766 7.9236 40.4941 8.48475 38.5844H13.9932V38.9932C13.9932 40.1215 13.3363 41.1209 12.5863 41.9638C11.6924 42.9683 11.1494 44.2919 11.1494 45.7423C11.1494 48.8829 13.6953 51.4288 16.8359 51.4288C18.5138 51.4288 20.022 50.702 21.0629 49.5461C21.9592 48.5507 23.0944 47.6378 24.4338 47.6378H34.8278C36.1672 47.6378 37.3024 48.5507 38.1987 49.5461C39.2396 50.702 40.7478 51.4288 42.4257 51.4288C45.5663 51.4288 48.1122 48.8829 48.1122 45.7423C48.1122 42.6018 45.5663 40.0559 42.4257 40.0559C40.7478 40.0559 39.2396 40.7826 38.1987 41.9385C37.3024 42.9339 36.1673 43.8468 34.8278 43.8468H24.4147C23.0867 43.8468 21.9582 42.9375 21.0719 41.9486C20.3254 41.1156 19.6796 40.1282 19.6796 39.0097V38.5844H21.0921C22.0523 38.5844 22.9176 38.0051 23.2836 37.1173ZM34.7666 59.2593C34.7666 61.8775 32.6441 64 30.0259 64C27.4077 64 25.2852 61.8775 25.2852 59.2593C25.2852 56.641 27.4077 54.5185 30.0259 54.5185C32.6441 54.5185 34.7666 56.641 34.7666 59.2593Z" fill="url(#paint0_linear_377_2446)"/>
<path d="M76.7876 53.0001V42.8751H80.7001V43.8876H78.2001V47.2626H80.1376V48.2626H78.2001V53.0001H76.7876Z" fill="#828282"/>
<path d="M83.5454 53.1001C83.0121 53.1001 82.5912 52.9918 82.2829 52.7751C81.9746 52.5584 81.7537 52.2501 81.6204 51.8501C81.4954 51.4501 81.4329 50.9793 81.4329 50.4376V48.3376C81.4329 47.7959 81.4954 47.3251 81.6204 46.9251C81.7537 46.5251 81.9746 46.2168 82.2829 46.0001C82.5912 45.7834 83.0121 45.6751 83.5454 45.6751C84.0787 45.6751 84.4954 45.7834 84.7954 46.0001C85.1037 46.2168 85.3204 46.5251 85.4454 46.9251C85.5787 47.3251 85.6454 47.7959 85.6454 48.3376V50.4376C85.6454 50.9793 85.5787 51.4501 85.4454 51.8501C85.3204 52.2501 85.1037 52.5584 84.7954 52.7751C84.4954 52.9918 84.0787 53.1001 83.5454 53.1001ZM83.5454 52.1126C83.8037 52.1126 83.9829 52.0376 84.0829 51.8876C84.1912 51.7376 84.2537 51.5418 84.2704 51.3001C84.2954 51.0501 84.3079 50.7918 84.3079 50.5251V48.2626C84.3079 47.9876 84.2954 47.7293 84.2704 47.4876C84.2537 47.2459 84.1912 47.0501 84.0829 46.9001C83.9829 46.7418 83.8037 46.6626 83.5454 46.6626C83.2871 46.6626 83.1037 46.7418 82.9954 46.9001C82.8871 47.0501 82.8204 47.2459 82.7954 47.4876C82.7787 47.7293 82.7704 47.9876 82.7704 48.2626V50.5251C82.7704 50.7918 82.7787 51.0501 82.7954 51.3001C82.8204 51.5418 82.8871 51.7376 82.9954 51.8876C83.1037 52.0376 83.2871 52.1126 83.5454 52.1126Z" fill="#828282"/>
<path d="M86.9055 53.0001V45.7751H88.243V46.8001C88.5096 46.3584 88.7763 46.0626 89.043 45.9126C89.3096 45.7626 89.5763 45.6876 89.843 45.6876C89.8763 45.6876 89.9055 45.6876 89.9305 45.6876C89.9638 45.6876 90.0055 45.6918 90.0555 45.7001V47.1751C89.9555 47.1334 89.8388 47.1001 89.7055 47.0751C89.5805 47.0418 89.4513 47.0251 89.318 47.0251C89.1096 47.0251 88.918 47.0751 88.743 47.1751C88.5763 47.2668 88.4096 47.4501 88.243 47.7251V53.0001H86.9055Z" fill="#828282"/>
<path d="M93.853 53.0001V42.8751H96.178C96.6364 42.8751 97.0322 42.9251 97.3655 43.0251C97.7072 43.1251 97.9905 43.2793 98.2155 43.4876C98.4405 43.6959 98.6072 43.9626 98.7155 44.2876C98.8239 44.6043 98.878 44.9793 98.878 45.4126C98.878 45.8293 98.8239 46.1918 98.7155 46.5001C98.6155 46.8001 98.4572 47.0376 98.2405 47.2126C98.0322 47.3876 97.7614 47.5001 97.428 47.5501C97.8364 47.6418 98.1655 47.8001 98.4155 48.0251C98.6655 48.2418 98.8489 48.5251 98.9655 48.8751C99.0905 49.2168 99.153 49.6293 99.153 50.1126C99.153 50.5459 99.103 50.9418 99.003 51.3001C98.903 51.6584 98.7447 51.9626 98.528 52.2126C98.3197 52.4626 98.0489 52.6584 97.7155 52.8001C97.3905 52.9334 97.003 53.0001 96.553 53.0001H93.853ZM95.2655 51.9876H96.2155C96.8489 51.9876 97.2697 51.8418 97.478 51.5501C97.6947 51.2501 97.803 50.7709 97.803 50.1126C97.803 49.6876 97.7447 49.3334 97.628 49.0501C97.5197 48.7584 97.3405 48.5418 97.0905 48.4001C96.8489 48.2501 96.5197 48.1751 96.103 48.1751H95.2655V51.9876ZM95.2655 47.1001H96.103C96.503 47.1001 96.8155 47.0459 97.0405 46.9376C97.2655 46.8209 97.4239 46.6376 97.5155 46.3876C97.6072 46.1376 97.653 45.8126 97.653 45.4126C97.653 44.9459 97.5822 44.6084 97.4405 44.4001C97.2989 44.1918 97.078 44.0626 96.778 44.0126C96.478 43.9543 96.0864 43.9251 95.603 43.9251H95.2655V47.1001Z" fill="#828282"/>
<path d="M102.296 53.1001C101.729 53.1001 101.292 52.9918 100.983 52.7751C100.675 52.5501 100.458 52.2251 100.333 51.8001C100.217 51.3668 100.158 50.8376 100.158 50.2126V48.5626C100.158 47.9209 100.221 47.3876 100.346 46.9626C100.471 46.5376 100.687 46.2168 100.996 46.0001C101.312 45.7834 101.746 45.6751 102.296 45.6751C102.904 45.6751 103.35 45.8001 103.633 46.0501C103.925 46.3001 104.117 46.6626 104.208 47.1376C104.3 47.6043 104.346 48.1668 104.346 48.8251V49.4126H101.496V50.8626C101.496 51.1543 101.521 51.3918 101.571 51.5751C101.629 51.7584 101.717 51.8959 101.833 51.9876C101.958 52.0709 102.117 52.1126 102.308 52.1126C102.508 52.1126 102.658 52.0668 102.758 51.9751C102.867 51.8751 102.937 51.7376 102.971 51.5626C103.012 51.3793 103.033 51.1668 103.033 50.9251V50.4876H104.333V50.7626C104.333 51.4876 104.179 52.0584 103.871 52.4751C103.562 52.8918 103.037 53.1001 102.296 53.1001ZM101.496 48.6876H103.033V48.0376C103.033 47.7376 103.017 47.4876 102.983 47.2876C102.95 47.0793 102.879 46.9251 102.771 46.8251C102.671 46.7168 102.508 46.6626 102.283 46.6626C102.067 46.6626 101.9 46.7126 101.783 46.8126C101.675 46.9126 101.6 47.0834 101.558 47.3251C101.517 47.5584 101.496 47.8834 101.496 48.3001V48.6876Z" fill="#828282"/>
<path d="M107.482 53.1001C107.107 53.1001 106.803 53.0293 106.569 52.8876C106.344 52.7459 106.178 52.5459 106.069 52.2876C105.969 52.0293 105.919 51.7251 105.919 51.3751V46.6626H105.157V45.7751H105.919V43.6626H107.257V45.7751H108.419V46.6626H107.257V51.2876C107.257 51.5709 107.303 51.7751 107.394 51.9001C107.486 52.0168 107.661 52.0751 107.919 52.0751C107.986 52.0751 108.061 52.0709 108.144 52.0626C108.236 52.0543 108.324 52.0459 108.407 52.0376V53.0251C108.24 53.0501 108.086 53.0668 107.944 53.0751C107.803 53.0918 107.649 53.1001 107.482 53.1001Z" fill="#828282"/>
<path d="M111.327 53.1001C110.952 53.1001 110.648 53.0293 110.415 52.8876C110.19 52.7459 110.023 52.5459 109.915 52.2876C109.815 52.0293 109.765 51.7251 109.765 51.3751V46.6626H109.002V45.7751H109.765V43.6626H111.102V45.7751H112.265V46.6626H111.102V51.2876C111.102 51.5709 111.148 51.7751 111.24 51.9001C111.331 52.0168 111.506 52.0751 111.765 52.0751C111.831 52.0751 111.906 52.0709 111.99 52.0626C112.081 52.0543 112.169 52.0459 112.252 52.0376V53.0251C112.085 53.0501 111.931 53.0668 111.79 53.0751C111.648 53.0918 111.494 53.1001 111.327 53.1001Z" fill="#828282"/>
<path d="M115.247 53.1001C114.681 53.1001 114.243 52.9918 113.935 52.7751C113.627 52.5501 113.41 52.2251 113.285 51.8001C113.168 51.3668 113.11 50.8376 113.11 50.2126V48.5626C113.11 47.9209 113.172 47.3876 113.297 46.9626C113.422 46.5376 113.639 46.2168 113.947 46.0001C114.264 45.7834 114.697 45.6751 115.247 45.6751C115.856 45.6751 116.302 45.8001 116.585 46.0501C116.877 46.3001 117.068 46.6626 117.16 47.1376C117.252 47.6043 117.297 48.1668 117.297 48.8251V49.4126H114.447V50.8626C114.447 51.1543 114.472 51.3918 114.522 51.5751C114.581 51.7584 114.668 51.8959 114.785 51.9876C114.91 52.0709 115.068 52.1126 115.26 52.1126C115.46 52.1126 115.61 52.0668 115.71 51.9751C115.818 51.8751 115.889 51.7376 115.922 51.5626C115.964 51.3793 115.985 51.1668 115.985 50.9251V50.4876H117.285V50.7626C117.285 51.4876 117.131 52.0584 116.822 52.4751C116.514 52.8918 115.989 53.1001 115.247 53.1001ZM114.447 48.6876H115.985V48.0376C115.985 47.7376 115.968 47.4876 115.935 47.2876C115.902 47.0793 115.831 46.9251 115.722 46.8251C115.622 46.7168 115.46 46.6626 115.235 46.6626C115.018 46.6626 114.852 46.7126 114.735 46.8126C114.627 46.9126 114.552 47.0834 114.51 47.3251C114.468 47.5584 114.447 47.8834 114.447 48.3001V48.6876Z" fill="#828282"/>
<path d="M118.546 53.0001V45.7751H119.884V46.8001C120.15 46.3584 120.417 46.0626 120.684 45.9126C120.95 45.7626 121.217 45.6876 121.484 45.6876C121.517 45.6876 121.546 45.6876 121.571 45.6876C121.604 45.6876 121.646 45.6918 121.696 45.7001V47.1751C121.596 47.1334 121.479 47.1001 121.346 47.0751C121.221 47.0418 121.092 47.0251 120.959 47.0251C120.75 47.0251 120.559 47.0751 120.384 47.1751C120.217 47.2668 120.05 47.4501 119.884 47.7251V53.0001H118.546Z" fill="#828282"/>
<path d="M122.525 53.0001V45.7751H123.762V46.4626C124.004 46.1876 124.271 45.9834 124.562 45.8501C124.854 45.7168 125.154 45.6501 125.462 45.6501C125.729 45.6501 125.966 45.7168 126.175 45.8501C126.391 45.9834 126.546 46.2209 126.637 46.5626C126.896 46.2459 127.175 46.0168 127.475 45.8751C127.783 45.7251 128.104 45.6501 128.437 45.6501C128.671 45.6501 128.883 45.7084 129.075 45.8251C129.266 45.9334 129.421 46.1126 129.537 46.3626C129.654 46.6043 129.712 46.9251 129.712 47.3251V53.0001H128.487V47.4126C128.487 47.0626 128.429 46.8293 128.312 46.7126C128.204 46.5876 128.054 46.5251 127.862 46.5251C127.679 46.5251 127.487 46.5793 127.287 46.6876C127.087 46.7876 126.904 46.9293 126.737 47.1126C126.737 47.1459 126.737 47.1793 126.737 47.2126C126.737 47.2459 126.737 47.2834 126.737 47.3251V53.0001H125.512V47.4126C125.512 47.0626 125.454 46.8293 125.337 46.7126C125.229 46.5876 125.079 46.5251 124.887 46.5251C124.704 46.5251 124.512 46.5793 124.312 46.6876C124.121 46.7876 123.937 46.9293 123.762 47.1126V53.0001H122.525Z" fill="#828282"/>
<path d="M133.021 53.1001C132.454 53.1001 132.017 52.9918 131.708 52.7751C131.4 52.5501 131.183 52.2251 131.058 51.8001C130.942 51.3668 130.883 50.8376 130.883 50.2126V48.5626C130.883 47.9209 130.946 47.3876 131.071 46.9626C131.196 46.5376 131.412 46.2168 131.721 46.0001C132.037 45.7834 132.471 45.6751 133.021 45.6751C133.629 45.6751 134.075 45.8001 134.358 46.0501C134.65 46.3001 134.842 46.6626 134.933 47.1376C135.025 47.6043 135.071 48.1668 135.071 48.8251V49.4126H132.221V50.8626C132.221 51.1543 132.246 51.3918 132.296 51.5751C132.354 51.7584 132.442 51.8959 132.558 51.9876C132.683 52.0709 132.842 52.1126 133.033 52.1126C133.233 52.1126 133.383 52.0668 133.483 51.9751C133.592 51.8751 133.662 51.7376 133.696 51.5626C133.737 51.3793 133.758 51.1668 133.758 50.9251V50.4876H135.058V50.7626C135.058 51.4876 134.904 52.0584 134.596 52.4751C134.287 52.8918 133.762 53.1001 133.021 53.1001ZM132.221 48.6876H133.758V48.0376C133.758 47.7376 133.742 47.4876 133.708 47.2876C133.675 47.0793 133.604 46.9251 133.496 46.8251C133.396 46.7168 133.233 46.6626 133.008 46.6626C132.792 46.6626 132.625 46.7126 132.508 46.8126C132.4 46.9126 132.325 47.0834 132.283 47.3251C132.242 47.5584 132.221 47.8834 132.221 48.3001V48.6876Z" fill="#828282"/>
<path d="M136.282 53.0001V45.7751H137.62V46.4876C137.861 46.2626 138.128 46.0709 138.42 45.9126C138.711 45.7543 139.032 45.6751 139.382 45.6751C139.674 45.6751 139.895 45.7501 140.045 45.9001C140.203 46.0501 140.311 46.2376 140.37 46.4626C140.436 46.6876 140.47 46.9168 140.47 47.1501V53.0001H139.132V47.5376C139.132 47.2793 139.095 47.0793 139.02 46.9376C138.945 46.7959 138.79 46.7251 138.557 46.7251C138.407 46.7251 138.249 46.7709 138.082 46.8626C137.924 46.9459 137.77 47.0501 137.62 47.1751V53.0001H136.282Z" fill="#828282"/>
<path d="M143.7 53.1001C143.325 53.1001 143.021 53.0293 142.788 52.8876C142.563 52.7459 142.396 52.5459 142.288 52.2876C142.188 52.0293 142.138 51.7251 142.138 51.3751V46.6626H141.375V45.7751H142.138V43.6626H143.475V45.7751H144.638V46.6626H143.475V51.2876C143.475 51.5709 143.521 51.7751 143.613 51.9001C143.704 52.0168 143.879 52.0751 144.138 52.0751C144.204 52.0751 144.279 52.0709 144.363 52.0626C144.454 52.0543 144.542 52.0459 144.625 52.0376V53.0251C144.459 53.0501 144.304 53.0668 144.163 53.0751C144.021 53.0918 143.867 53.1001 143.7 53.1001Z" fill="#828282"/>
<path d="M151.177 53.1126C150.494 53.1126 149.948 52.9793 149.539 52.7126C149.131 52.4459 148.839 52.0668 148.664 51.5751C148.489 51.0751 148.402 50.4918 148.402 49.8251V45.9876C148.402 45.3209 148.489 44.7501 148.664 44.2751C148.848 43.7918 149.139 43.4251 149.539 43.1751C149.948 42.9168 150.494 42.7876 151.177 42.7876C151.86 42.7876 152.402 42.9168 152.802 43.1751C153.202 43.4334 153.489 43.8001 153.664 44.2751C153.848 44.7501 153.939 45.3209 153.939 45.9876V49.8376C153.939 50.4959 153.848 51.0709 153.664 51.5626C153.489 52.0543 153.202 52.4376 152.802 52.7126C152.402 52.9793 151.86 53.1126 151.177 53.1126ZM151.177 52.0001C151.552 52.0001 151.835 51.9251 152.027 51.7751C152.219 51.6168 152.348 51.4001 152.414 51.1251C152.481 50.8418 152.514 50.5126 152.514 50.1376V45.7001C152.514 45.3251 152.481 45.0043 152.414 44.7376C152.348 44.4626 152.219 44.2543 152.027 44.1126C151.835 43.9626 151.552 43.8876 151.177 43.8876C150.802 43.8876 150.514 43.9626 150.314 44.1126C150.123 44.2543 149.994 44.4626 149.927 44.7376C149.86 45.0043 149.827 45.3251 149.827 45.7001V50.1376C149.827 50.5126 149.86 50.8418 149.927 51.1251C149.994 51.4001 150.123 51.6168 150.314 51.7751C150.514 51.9251 150.802 52.0001 151.177 52.0001Z" fill="#828282"/>
<path d="M155.64 53.0001V46.7626H154.778V45.7751H155.64V45.4001C155.64 44.9501 155.673 44.5668 155.74 44.2501C155.815 43.9251 155.965 43.6751 156.19 43.5001C156.415 43.3251 156.753 43.2376 157.203 43.2376C157.369 43.2376 157.515 43.2459 157.64 43.2626C157.773 43.2709 157.919 43.2918 158.078 43.3251V44.3001C158.003 44.2834 157.919 44.2709 157.828 44.2626C157.736 44.2459 157.653 44.2376 157.578 44.2376C157.319 44.2376 157.153 44.3251 157.078 44.5001C157.011 44.6668 156.978 44.8918 156.978 45.1751V45.7751H158.078V46.7626H156.978V53.0001H155.64Z" fill="#828282"/>
<path d="M161.773 53.0001V42.8751H164.285C164.894 42.8751 165.377 42.9876 165.735 43.2126C166.102 43.4293 166.369 43.7459 166.535 44.1626C166.702 44.5793 166.785 45.0834 166.785 45.6751C166.785 46.2084 166.69 46.6709 166.498 47.0626C166.315 47.4543 166.04 47.7584 165.673 47.9751C165.306 48.1834 164.848 48.2876 164.298 48.2876H163.185V53.0001H161.773ZM163.185 47.2751H163.835C164.244 47.2751 164.565 47.2293 164.798 47.1376C165.031 47.0459 165.198 46.8876 165.298 46.6626C165.398 46.4293 165.448 46.1043 165.448 45.6876C165.448 45.2043 165.41 44.8334 165.335 44.5751C165.269 44.3168 165.123 44.1376 164.898 44.0376C164.673 43.9376 164.323 43.8876 163.848 43.8876H163.185V47.2751Z" fill="#828282"/>
<path d="M168.704 53.1001C168.42 53.1001 168.2 53.0251 168.041 52.8751C167.883 52.7251 167.77 52.5376 167.704 52.3126C167.645 52.0876 167.616 51.8584 167.616 51.6251V45.7751H168.954V51.2251C168.954 51.4834 168.991 51.6876 169.066 51.8376C169.141 51.9793 169.295 52.0501 169.529 52.0501C169.679 52.0501 169.833 52.0084 169.991 51.9251C170.158 51.8334 170.316 51.7251 170.466 51.6001V45.7751H171.804V53.0001H170.466V52.2876C170.233 52.5126 169.966 52.7043 169.666 52.8626C169.375 53.0209 169.054 53.1001 168.704 53.1001Z" fill="#828282"/>
<path d="M175.759 53.1001C175.501 53.1001 175.268 53.0376 175.059 52.9126C174.859 52.7793 174.684 52.6334 174.534 52.4751V53.0001H173.197V42.8751H174.534V46.3501C174.693 46.1668 174.88 46.0084 175.097 45.8751C175.322 45.7418 175.588 45.6751 175.897 45.6751C176.272 45.6751 176.568 45.7751 176.784 45.9751C177.009 46.1668 177.176 46.4126 177.284 46.7126C177.393 47.0043 177.463 47.3043 177.497 47.6126C177.53 47.9126 177.547 48.1709 177.547 48.3876V50.1376C177.547 50.6459 177.497 51.1293 177.397 51.5876C177.297 52.0376 177.118 52.4043 176.859 52.6876C176.601 52.9626 176.234 53.1001 175.759 53.1001ZM175.484 52.0501C175.718 52.0501 175.884 51.9668 175.984 51.8001C176.084 51.6251 176.147 51.3918 176.172 51.1001C176.197 50.8084 176.209 50.4876 176.209 50.1376V48.3876C176.209 48.0876 176.193 47.8126 176.159 47.5626C176.126 47.3043 176.055 47.1001 175.947 46.9501C175.838 46.8001 175.668 46.7251 175.434 46.7251C175.259 46.7251 175.093 46.7626 174.934 46.8376C174.784 46.9126 174.651 46.9959 174.534 47.0876V51.7251C174.651 51.8168 174.788 51.8959 174.947 51.9626C175.113 52.0209 175.293 52.0501 175.484 52.0501Z" fill="#828282"/>
<path d="M178.888 53.0001V42.8751H180.225V53.0001H178.888Z" fill="#828282"/>
<path d="M181.706 53.0001V45.7751H183.044V53.0001H181.706ZM181.706 44.7001V43.3001H183.044V44.7001H181.706Z" fill="#828282"/>
<path d="M186.45 53.1001C185.859 53.1001 185.409 52.9834 185.1 52.7501C184.8 52.5084 184.596 52.1709 184.488 51.7376C184.388 51.3043 184.338 50.8001 184.338 50.2251V48.5626C184.338 47.9543 184.392 47.4376 184.5 47.0126C184.609 46.5793 184.813 46.2501 185.113 46.0251C185.421 45.7918 185.867 45.6751 186.45 45.6751C186.975 45.6751 187.38 45.7626 187.663 45.9376C187.955 46.1043 188.155 46.3584 188.263 46.7001C188.371 47.0334 188.425 47.4501 188.425 47.9501V48.3751H187.213V47.9376C187.213 47.6209 187.192 47.3709 187.15 47.1876C187.109 47.0043 187.034 46.8709 186.925 46.7876C186.817 46.7043 186.663 46.6626 186.463 46.6626C186.246 46.6626 186.08 46.7126 185.963 46.8126C185.846 46.9126 185.767 47.0834 185.725 47.3251C185.692 47.5584 185.675 47.8793 185.675 48.2876V50.5626C185.675 51.1793 185.734 51.5918 185.85 51.8001C185.967 52.0084 186.175 52.1126 186.475 52.1126C186.7 52.1126 186.863 52.0626 186.963 51.9626C187.071 51.8543 187.138 51.7043 187.163 51.5126C187.196 51.3209 187.213 51.1043 187.213 50.8626V50.2751H188.425V50.7751C188.425 51.2584 188.367 51.6751 188.25 52.0251C188.142 52.3751 187.942 52.6418 187.65 52.8251C187.367 53.0084 186.967 53.1001 186.45 53.1001Z" fill="#828282"/>
<path d="M192.583 53.0001V42.8751H193.996V47.2501H196.596V42.8751H198.008V53.0001H196.596V48.2626H193.996V53.0001H192.583Z" fill="#828282"/>
<path d="M201.478 53.1001C200.911 53.1001 200.474 52.9918 200.165 52.7751C199.857 52.5501 199.64 52.2251 199.515 51.8001C199.399 51.3668 199.34 50.8376 199.34 50.2126V48.5626C199.34 47.9209 199.403 47.3876 199.528 46.9626C199.653 46.5376 199.869 46.2168 200.178 46.0001C200.494 45.7834 200.928 45.6751 201.478 45.6751C202.086 45.6751 202.532 45.8001 202.815 46.0501C203.107 46.3001 203.299 46.6626 203.39 47.1376C203.482 47.6043 203.528 48.1668 203.528 48.8251V49.4126H200.678V50.8626C200.678 51.1543 200.703 51.3918 200.753 51.5751C200.811 51.7584 200.899 51.8959 201.015 51.9876C201.14 52.0709 201.299 52.1126 201.49 52.1126C201.69 52.1126 201.84 52.0668 201.94 51.9751C202.049 51.8751 202.119 51.7376 202.153 51.5626C202.194 51.3793 202.215 51.1668 202.215 50.9251V50.4876H203.515V50.7626C203.515 51.4876 203.361 52.0584 203.053 52.4751C202.744 52.8918 202.22 53.1001 201.478 53.1001ZM200.678 48.6876H202.215V48.0376C202.215 47.7376 202.199 47.4876 202.165 47.2876C202.132 47.0793 202.061 46.9251 201.953 46.8251C201.853 46.7168 201.69 46.6626 201.465 46.6626C201.249 46.6626 201.082 46.7126 200.965 46.8126C200.857 46.9126 200.782 47.0834 200.74 47.3251C200.699 47.5584 200.678 47.8834 200.678 48.3001V48.6876Z" fill="#828282"/>
<path d="M206.039 53.1001C205.756 53.1001 205.506 53.0209 205.289 52.8626C205.072 52.6959 204.902 52.4876 204.777 52.2376C204.652 51.9793 204.589 51.7084 204.589 51.4251C204.589 50.9751 204.664 50.5959 204.814 50.2876C204.964 49.9793 205.168 49.7209 205.427 49.5126C205.693 49.2959 205.997 49.1084 206.339 48.9501C206.689 48.7918 207.056 48.6376 207.439 48.4876V47.9751C207.439 47.6834 207.422 47.4418 207.389 47.2501C207.356 47.0584 207.285 46.9168 207.177 46.8251C207.077 46.7251 206.922 46.6751 206.714 46.6751C206.531 46.6751 206.381 46.7168 206.264 46.8001C206.156 46.8834 206.077 47.0043 206.027 47.1626C205.977 47.3126 205.952 47.4918 205.952 47.7001V48.0626L204.627 48.0126C204.643 47.2126 204.827 46.6251 205.177 46.2501C205.527 45.8668 206.068 45.6751 206.802 45.6751C207.518 45.6751 208.027 45.8709 208.327 46.2626C208.627 46.6543 208.777 47.2209 208.777 47.9626V51.2626C208.777 51.4876 208.781 51.7043 208.789 51.9126C208.806 52.1209 208.822 52.3168 208.839 52.5001C208.864 52.6751 208.885 52.8418 208.902 53.0001H207.677C207.652 52.8668 207.618 52.7001 207.577 52.5001C207.543 52.2918 207.518 52.1043 207.502 51.9376C207.418 52.2209 207.256 52.4876 207.014 52.7376C206.781 52.9793 206.456 53.1001 206.039 53.1001ZM206.564 51.9501C206.697 51.9501 206.822 51.9126 206.939 51.8376C207.056 51.7626 207.16 51.6793 207.252 51.5876C207.343 51.4876 207.406 51.4084 207.439 51.3501V49.3001C207.231 49.4168 207.035 49.5334 206.852 49.6501C206.668 49.7668 206.506 49.8918 206.364 50.0251C206.231 50.1501 206.122 50.2959 206.039 50.4626C205.964 50.6209 205.927 50.8043 205.927 51.0126C205.927 51.3043 205.981 51.5334 206.089 51.7001C206.197 51.8668 206.356 51.9501 206.564 51.9501Z" fill="#828282"/>
<path d="M210.186 53.0001V42.8751H211.524V53.0001H210.186Z" fill="#828282"/>
<path d="M214.843 53.1001C214.468 53.1001 214.164 53.0293 213.93 52.8876C213.705 52.7459 213.539 52.5459 213.43 52.2876C213.33 52.0293 213.28 51.7251 213.28 51.3751V46.6626H212.518V45.7751H213.28V43.6626H214.618V45.7751H215.78V46.6626H214.618V51.2876C214.618 51.5709 214.664 51.7751 214.755 51.9001C214.847 52.0168 215.022 52.0751 215.28 52.0751C215.347 52.0751 215.422 52.0709 215.505 52.0626C215.597 52.0543 215.684 52.0459 215.768 52.0376V53.0251C215.601 53.0501 215.447 53.0668 215.305 53.0751C215.164 53.0918 215.009 53.1001 214.843 53.1001Z" fill="#828282"/>
<path d="M216.8 53.0001V42.8751H218.138V46.5251C218.38 46.2918 218.65 46.0918 218.95 45.9251C219.25 45.7584 219.584 45.6751 219.95 45.6751C220.234 45.6751 220.45 45.7501 220.6 45.9001C220.759 46.0501 220.867 46.2376 220.925 46.4626C220.992 46.6876 221.025 46.9168 221.025 47.1501V53.0001H219.688V47.5376C219.688 47.2793 219.65 47.0793 219.575 46.9376C219.5 46.7959 219.346 46.7251 219.113 46.7251C218.955 46.7251 218.788 46.7709 218.613 46.8626C218.446 46.9543 218.288 47.0668 218.138 47.2001V53.0001H216.8Z" fill="#828282"/>
<path d="M77.3672 37V9.45996H89.7432V13.608H83.4532V20.442H88.2472V24.658H83.4532V32.886H89.8112V37H77.3672Z" fill="url(#paint1_linear_377_2446)"/>
<path d="M92.6762 37V9.45996H98.7622V20.612H103.012V9.45996H109.132V37H103.012V24.964H98.7622V37H92.6762Z" fill="url(#paint2_linear_377_2446)"/>
<path d="M113.326 37V9.45996H120.908C122.767 9.45996 124.376 9.66396 125.736 10.072C127.096 10.48 128.15 11.2166 128.898 12.282C129.669 13.3246 130.054 14.8093 130.054 16.736C130.054 17.8693 129.964 18.878 129.782 19.762C129.601 20.646 129.261 21.4166 128.762 22.074C128.286 22.7086 127.595 23.2413 126.688 23.672L130.462 37H124.172L121.146 24.658H119.412V37H113.326ZM119.412 21.156H121.112C121.974 21.156 122.642 21.0086 123.118 20.714C123.594 20.3966 123.923 19.9546 124.104 19.388C124.308 18.7986 124.41 18.096 124.41 17.28C124.41 16.1013 124.195 15.1833 123.764 14.526C123.334 13.8686 122.54 13.54 121.384 13.54H119.412V21.156Z" fill="url(#paint3_linear_377_2446)"/>
<path d="M142.171 36.9999V9.45994H148.257V32.8859H154.581V36.9999H142.171Z" fill="#1A1A19"/>
<path d="M164.701 37.4079C162.639 37.4079 161.007 37.0453 159.805 36.3199C158.604 35.5946 157.743 34.5519 157.221 33.1919C156.7 31.8319 156.439 30.2113 156.439 28.3299V18.0959C156.439 16.1919 156.7 14.5713 157.221 13.2339C157.743 11.8966 158.604 10.8766 159.805 10.1739C161.007 9.4486 162.639 9.08594 164.701 9.08594C166.787 9.08594 168.43 9.4486 169.631 10.1739C170.855 10.8766 171.728 11.8966 172.249 13.2339C172.771 14.5713 173.031 16.1919 173.031 18.0959V28.3299C173.031 30.2113 172.771 31.8319 172.249 33.1919C171.728 34.5519 170.855 35.5946 169.631 36.3199C168.43 37.0453 166.787 37.4079 164.701 37.4079ZM164.701 33.0899C165.336 33.0899 165.801 32.9313 166.095 32.6139C166.39 32.2966 166.583 31.8886 166.673 31.3899C166.764 30.8913 166.809 30.3813 166.809 29.8599V16.5999C166.809 16.0559 166.764 15.5459 166.673 15.0699C166.583 14.5713 166.39 14.1633 166.095 13.8459C165.801 13.5286 165.336 13.3699 164.701 13.3699C164.112 13.3699 163.67 13.5286 163.375 13.8459C163.081 14.1633 162.888 14.5713 162.797 15.0699C162.707 15.5459 162.661 16.0559 162.661 16.5999V29.8599C162.661 30.3813 162.695 30.8913 162.763 31.3899C162.854 31.8886 163.035 32.2966 163.307 32.6139C163.602 32.9313 164.067 33.0899 164.701 33.0899Z" fill="#1A1A19"/>
<path d="M183.909 37.4079C182.005 37.4079 180.498 37.0113 179.387 36.2179C178.299 35.4246 177.517 34.3139 177.041 32.8859C176.588 31.4353 176.361 29.7693 176.361 27.8879V18.6399C176.361 16.6906 176.611 15.0019 177.109 13.5739C177.608 12.1459 178.458 11.0466 179.659 10.2759C180.883 9.4826 182.538 9.08594 184.623 9.08594C186.663 9.08594 188.261 9.42594 189.417 10.1059C190.596 10.7859 191.435 11.7266 191.933 12.9279C192.432 14.1293 192.681 15.5346 192.681 17.1439V18.9119H186.731V16.6679C186.731 16.0786 186.686 15.5346 186.595 15.0359C186.527 14.5373 186.346 14.1406 186.051 13.8459C185.779 13.5286 185.326 13.3699 184.691 13.3699C184.034 13.3699 183.558 13.5513 183.263 13.9139C182.969 14.2539 182.776 14.6846 182.685 15.2059C182.617 15.7273 182.583 16.2713 182.583 16.8379V29.5879C182.583 30.1999 182.64 30.7779 182.753 31.3219C182.889 31.8433 183.116 32.2739 183.433 32.6139C183.773 32.9313 184.249 33.0899 184.861 33.0899C185.496 33.0899 185.983 32.9199 186.323 32.5799C186.663 32.2399 186.901 31.7979 187.037 31.2539C187.173 30.7099 187.241 30.1319 187.241 29.5199V26.2899H184.759V22.7199H192.715V36.9999H188.703L188.363 34.7219C188.001 35.4926 187.468 36.1386 186.765 36.6599C186.063 37.1586 185.111 37.4079 183.909 37.4079Z" fill="#1A1A19"/>
<path d="M196.558 36.9999V9.45994H202.644V36.9999H196.558Z" fill="#1A1A19"/>
<path d="M214.639 37.4079C212.554 37.4079 210.899 37.0339 209.675 36.2859C208.474 35.5153 207.624 34.4499 207.125 33.0899C206.626 31.7073 206.377 30.0866 206.377 28.2279V18.2999C206.377 16.3959 206.626 14.7639 207.125 13.4039C207.624 12.0213 208.474 10.9559 209.675 10.2079C210.899 9.45994 212.554 9.08594 214.639 9.08594C216.679 9.08594 218.266 9.42594 219.399 10.1059C220.555 10.7633 221.371 11.6926 221.847 12.8939C222.323 14.0953 222.561 15.4779 222.561 17.0419V19.4219H216.611V16.6679C216.611 16.1239 216.577 15.6026 216.509 15.1039C216.464 14.6053 216.305 14.1973 216.033 13.8799C215.761 13.5399 215.296 13.3699 214.639 13.3699C214.004 13.3699 213.528 13.5399 213.211 13.8799C212.916 14.2199 212.724 14.6506 212.633 15.1719C212.565 15.6706 212.531 16.2033 212.531 16.7699V29.7239C212.531 30.3359 212.576 30.9026 212.667 31.4239C212.78 31.9226 212.984 32.3306 213.279 32.6479C213.596 32.9426 214.05 33.0899 214.639 33.0899C215.274 33.0899 215.727 32.9313 215.999 32.6139C216.271 32.2739 216.441 31.8433 216.509 31.3219C216.577 30.8006 216.611 30.2679 216.611 29.7239V26.8339H222.561V29.2139C222.561 30.7779 222.323 32.1833 221.847 33.4299C221.394 34.6539 220.589 35.6286 219.433 36.3539C218.3 37.0566 216.702 37.4079 214.639 37.4079Z" fill="#1A1A19"/>
<defs>
<linearGradient id="paint0_linear_377_2446" x1="12.5" y1="13.5" x2="48" y2="62" gradientUnits="userSpaceOnUse">
<stop stop-color="#214F8A"/>
<stop offset="1" stop-color="#13BBAB"/>
</linearGradient>
<linearGradient id="paint1_linear_377_2446" x1="77.3672" y1="19.6561" x2="130.488" y2="20.1157" gradientUnits="userSpaceOnUse">
<stop stop-color="#214F89"/>
<stop offset="1" stop-color="#12BCAB"/>
</linearGradient>
<linearGradient id="paint2_linear_377_2446" x1="77.3672" y1="19.6561" x2="130.488" y2="20.1157" gradientUnits="userSpaceOnUse">
<stop stop-color="#214F89"/>
<stop offset="1" stop-color="#12BCAB"/>
</linearGradient>
<linearGradient id="paint3_linear_377_2446" x1="77.3672" y1="19.6561" x2="130.488" y2="20.1157" gradientUnits="userSpaceOnUse">
<stop stop-color="#214F89"/>
<stop offset="1" stop-color="#12BCAB"/>
</linearGradient>
</defs>
</svg>
